<svg viewBox="0 0 65 72" fill="none" xmlns="http://www.w3.org/2000/svg">
<path opacity="0.9" d="M64.4919 63.5794C62.4179 64.742 61.2832 65.8488 60.0183 66.0255C47.0531 67.8392 34.0972 69.783 21.0763 71.0386C17.0491 71.4292 12.8079 69.9318 8.70632 69.0762C6.09282 68.5274 4.64192 66.6115 4.61402 63.9515C4.58612 60.9008 6.74387 59.2453 9.30157 58.6873C15.4121 57.3573 21.5599 55.9901 27.7635 55.3948C36.6735 54.5392 45.6487 54.3438 55.1261 53.8416V21.038C51.2663 26.7115 47.8065 31.8175 44.4396 36.7655C39.5661 36.6632 37.3432 34.2171 36.1155 29.8923C34.8878 25.5489 32.8137 21.4473 30.7211 16.2668C27.4751 23.2795 24.6477 29.3901 21.8761 35.3797C15.7098 35.203 13.3939 30.2736 9.41317 25.5861L9.41317 39.5464C8.26918 38.1141 7.80416 37.5282 6.67877 36.1145L6.67877 52.1768C2.87479 52.4465 1.89821 50.4282 1.70289 47.8241C1.47968 44.7827 1.38667 41.7414 1.31226 38.6908C1.15415 31.4176 0.930935 24.1445 0.977439 16.8713C0.986739 14.8066 1.80521 12.7511 2.39115 10.0632C4.24199 11.2072 5.31157 12.3791 6.37185 12.3698C7.43213 12.3698 8.49241 11.1886 9.6736 10.4538C12.5661 13.9602 15.4214 17.4201 19.151 21.9309C22.0249 14.1648 24.5454 7.35669 27.1868 0.223053C28.9819 1.28333 30.3212 2.07389 32.5533 3.39459C32.1162 1.85998 31.9395 1.26473 31.6605 0.288158C32.7766 0.195151 33.8182 0.111445 34.3856 0.0649414C37.5664 7.57061 40.5798 14.667 44.0118 22.7494C46.1882 19.7359 47.9739 17.4294 49.5829 15.0112C51.0803 12.7604 52.3545 10.3608 53.7961 8.06354C54.8006 6.45452 55.8144 5.03152 58.2605 5.85928C59.0882 6.1383 60.3624 5.11522 61.897 4.50138C61.339 7.82173 60.8089 10.9933 60.2787 14.1555C60.5112 14.2113 60.7345 14.2671 60.967 14.3136C61.2274 13.4394 61.4878 12.5651 61.7482 11.7001C64.1478 27.6787 60.5391 43.5736 61.7482 59.8871C44.8303 57.9618 28.3029 59.1244 12.1755 63.9701C12.1383 64.5467 12.1104 65.1234 12.0732 65.7C15.2633 66.2487 18.4907 67.3834 21.6529 67.2253C31.1024 66.7603 40.5426 65.8116 49.9735 65.0025C54.4193 64.6211 58.865 64.1282 64.5105 63.5701L64.4919 63.5794ZM9.54338 13.3277C9.7573 17.5968 13.4032 22.6005 17.8396 24.5072C14.9657 20.6381 12.4638 17.2526 9.54338 13.3277ZM34.7483 8.35187C34.4135 8.50998 34.0786 8.66809 33.7438 8.8262C34.5995 10.584 35.4644 12.3326 36.3201 14.0904C36.6828 13.923 37.0363 13.7556 37.399 13.5789C36.5154 11.8396 35.6319 10.0911 34.7483 8.35187ZM38.8778 18.4338C38.8034 18.3129 38.7569 18.1455 38.6546 18.0897C38.5802 18.0525 38.4314 18.2013 38.3198 18.2664C38.45 18.4431 38.5802 18.6291 38.7104 18.8059C38.7662 18.6756 38.822 18.5547 38.8778 18.4245V18.4338ZM7.40423 33.4638C7.31122 33.3429 7.20892 33.2127 7.11591 33.0917C6.995 33.194 6.79037 33.2778 6.77177 33.3894C6.76247 33.501 6.93918 33.6312 7.03219 33.7614C7.1531 33.6591 7.27401 33.5661 7.39492 33.4638H7.40423ZM6.995 26.544L7.18101 26.2743L6.90198 26.2278L6.995 26.544Z" fill="currentColor"/>
</svg>
